<?xml version="1.0" encoding="UTF-8"?>
<!DOCTYPE svg PUBLIC "-//W3C//DTD SVG 1.1//EN" "http://www.w3.org/Graphics/SVG/1.1/DTD/svg11.dtd">
<!-- Article: https://www.nayuki.io/page/next-lexicographical-permutation-algorithm -->
<svg xmlns="http://www.w3.org/2000/svg" version="1.1" viewBox="0 0 12000 14000" fill="none" stroke="none">
	<rect x="0" y="0" width="12000" height="14000" fill="#FFFFFF"/>
	
	<defs>
		<rect id="sqr" x="4500" y="500" width="1000" height="1000" stroke="#000000" stroke-width="50" stroke-linejoin="round"/>
		<path id="0" fill="#000000" d="M4832,1014C4831,1052,4834,1090,4840,1129,4846,1167,4862,1200,4885,1227,4909,1253,4947,1267,4998,1268,5050,1267,5088,1253,5112,1227,5135,1200,5151,1167,5157,1129,5163,1090,5166,1052,5165,1014,5166,976,5163,937,5157,899,5151,860,5135,827,5112,800,5088,774,5050,760,4998,759,4947,760,4909,774,4885,800,4862,827,4846,860,4840,899,4834,937,4831,976,4832,1014ZM4895,1013C4895,987,4896,959,4899,928,4903,897,4912,870,4926,848,4941,825,4965,813,4998,812,5032,813,5056,825,5071,848,5085,870,5094,897,5098,928,5101,959,5102,987,5102,1013,5102,1039,5101,1068,5098,1099,5094,1130,5085,1157,5071,1179,5056,1202,5032,1214,4998,1215,4965,1214,4941,1202,4926,1179,4912,1157,4903,1130,4899,1099,4896,1068,4895,1039,4895,1013Z"/>
		<path id="1" fill="#000000" d="M5053,759L5008,759C5000,796,4983,821,4956,834,4930,848,4899,854,4864,853L4864,901,4994,901,4994,1260,5053,1260,5053,759Z"/>
		<path id="2" fill="#000000" d="M4893,936C4892,905,4899,877,4915,852,4931,827,4956,813,4991,812,5018,812,5041,821,5059,837,5077,853,5087,875,5088,902,5088,936,5077,963,5056,985,5034,1007,5002,1030,4960,1055,4924,1075,4893,1100,4867,1129,4841,1159,4825,1202,4819,1260L5146,1260,5146,1207,4889,1207C4896,1177,4913,1152,4940,1132,4967,1112,4997,1093,5030,1075,5062,1056,5090,1034,5114,1008,5138,981,5150,947,5151,903,5150,856,5135,821,5106,796,5076,772,5039,759,4994,759,4941,760,4900,777,4872,810,4844,842,4831,884,4834,936L4893,936Z"/>
		<path id="3" fill="#000000" d="M4956,1025C4962,1024,4968,1024,4974,1023,4980,1023,4986,1023,4992,1023,5022,1023,5048,1031,5068,1047,5088,1063,5098,1087,5099,1119,5098,1149,5087,1173,5066,1190,5046,1206,5020,1215,4990,1215,4956,1215,4930,1204,4912,1184,4894,1165,4885,1138,4883,1105L4824,1105C4823,1157,4838,1197,4868,1225,4898,1253,4938,1268,4990,1268,5038,1268,5079,1255,5111,1229,5144,1204,5161,1166,5162,1116,5162,1085,5155,1059,5140,1038,5125,1016,5102,1002,5072,995L5072,993C5092,984,5108,971,5121,953,5134,936,5141,916,5141,894,5140,847,5126,813,5098,791,5069,770,5033,759,4989,759,4939,760,4901,775,4876,804,4850,834,4836,873,4835,921L4894,921C4895,891,4902,865,4917,844,4932,824,4956,813,4989,812,5015,812,5036,819,5052,833,5069,846,5077,866,5078,893,5077,920,5067,941,5049,954,5031,968,5009,975,4983,975,4974,975,4965,975,4956,974L4956,1025Z"/>
		<path id="5" fill="#000000" d="M5135,768L4887,768,4841,1027,4892,1030C4904,1016,4918,1004,4933,996,4949,987,4967,983,4986,983,5020,984,5047,994,5067,1015,5088,1036,5098,1063,5099,1097,5098,1136,5087,1166,5067,1186,5047,1205,5022,1215,4993,1215,4962,1215,4938,1206,4919,1189,4900,1173,4890,1151,4887,1125L4828,1125C4830,1170,4846,1205,4876,1230,4905,1255,4943,1268,4987,1268,5045,1266,5089,1249,5118,1216,5148,1184,5162,1145,5162,1101,5161,1044,5145,1001,5115,973,5084,944,5046,930,5000,930,4983,930,4966,933,4949,939,4933,945,4919,954,4907,966L4906,965,4933,821,5135,821,5135,768Z"/>
		<g id="init-seq">
			<use href="#0" x="0"/>
			<use href="#1" x="1000"/>
			<use href="#2" x="2000"/>
			<use href="#5" x="3000"/>
			<use href="#3" x="4000"/>
			<use href="#3" x="5000"/>
			<use href="#0" x="6000"/>
		</g>
		
		<path id="sla" d="M0,0c-4,2,-7,2,-10,2c-4,0,-7,-2,-8,-5c-1,-3,-1,-8,-1,-15l0,-94c-1,-21,-8,-35,-22,-41c-14,-7,-29,-10,-46,-9c-21,0,-39,4,-54,13c-14,10,-22,25,-24,48l30,0c1,-14,5,-23,14,-28c8,-5,19,-7,32,-7c10,0,19,1,27,5c9,4,13,13,13,25c0,11,-6,17,-18,20c-12,2,-26,5,-43,7c-16,3,-30,8,-43,15c-12,8,-18,21,-19,41c1,18,6,31,18,39c11,8,25,12,43,12c12,0,24,-2,35,-7c11,-4,20,-11,29,-21c0,10,2,17,7,21c4,5,10,7,18,7c5,0,9,0,12,-1c4,-1,7,-2,10,-4l0,-23zM-49,-39c0,9,-4,18,-13,27c-9,9,-23,13,-43,14c-9,0,-17,-2,-24,-6c-7,-4,-11,-11,-11,-21c0,-11,4,-18,11,-23c7,-5,15,-8,26,-10c10,-1,20,-3,30,-4c10,-1,18,-4,24,-8l0,31z"/>
		<path id="slc" d="M0,0c-3,-21,-11,-37,-25,-47c-15,-10,-33,-15,-54,-15c-29,1,-50,10,-65,28c-14,18,-21,41,-21,69c0,28,7,50,22,67c14,17,36,25,64,26c23,0,41,-6,54,-19c14,-12,23,-29,26,-51l-31,0c-2,13,-7,24,-15,32c-9,8,-20,12,-35,12c-19,-1,-32,-8,-41,-21c-8,-13,-12,-28,-12,-46c0,-19,4,-35,12,-49c8,-14,23,-21,45,-22c12,0,22,3,30,10c8,6,13,15,15,26l31,0z"/>
		<path id="sld" d="M0,0l-30,0l0,94l-1,0c-7,-10,-16,-18,-27,-22c-11,-4,-22,-6,-32,-6c-27,1,-48,10,-62,28c-14,18,-21,40,-21,66c0,27,7,49,21,68c14,18,35,27,63,28c13,0,24,-2,35,-7c10,-4,18,-12,23,-21l1,0l0,24l30,0l0,-252zM-141,163c0,-19,4,-35,12,-49c8,-14,22,-21,43,-22c20,1,35,8,44,21c9,13,13,30,13,48c0,18,-4,34,-13,47c-8,14,-23,21,-43,22c-19,-1,-33,-8,-42,-21c-10,-13,-14,-29,-14,-46z"/>
		<path id="sle" d="M0,0c-2,12,-8,21,-16,27c-8,6,-18,9,-31,9c-19,0,-34,-6,-43,-18c-9,-12,-14,-26,-13,-42l136,0c1,-24,-4,-46,-16,-68c-13,-22,-35,-34,-66,-36c-26,1,-46,9,-62,27c-15,17,-23,40,-24,68c1,28,8,51,23,68c14,18,35,26,64,27c21,0,38,-5,51,-16c14,-10,23,-26,27,-46l-30,0zM-103,-50c1,-14,6,-27,15,-37c9,-9,21,-15,37,-15c15,0,27,5,37,15c9,10,14,22,15,37l-104,0z"/>
		<path id="slf" d="M0,0l30,0l0,-156l35,0l0,-26l-35,0l0,-26c0,-8,2,-14,6,-17c4,-3,10,-4,17,-4c3,0,5,0,8,1c3,0,6,1,9,1l0,-25c-3,-1,-6,-2,-10,-2c-3,-1,-7,-1,-10,-1c-16,0,-29,4,-37,11c-9,8,-13,19,-13,34l0,28l-31,0l0,26l31,0l0,156z"/>
		<path id="slg" d="M0,0l-28,0l0,26l0,0c-6,-10,-13,-17,-23,-22c-9,-5,-20,-8,-32,-8c-31,1,-53,12,-65,32c-13,20,-19,41,-19,64c0,26,7,47,20,65c14,17,34,26,62,27c11,0,22,-3,33,-8c10,-6,18,-14,23,-25l1,0l0,12c0,21,-4,37,-13,50c-8,12,-22,19,-42,19c-10,0,-20,-2,-30,-7c-10,-4,-16,-12,-17,-23l-30,0c2,20,10,34,26,42c15,8,31,12,50,12c28,0,50,-8,63,-23c14,-15,21,-37,21,-66l0,-167zM-84,158c-19,-1,-33,-8,-40,-22c-8,-15,-11,-30,-11,-48c0,-18,4,-33,12,-46c9,-13,23,-19,42,-20c18,1,32,8,40,21c8,13,12,28,12,44c0,18,-4,34,-13,49c-8,14,-22,21,-42,22z"/>
		<path id="slh" d="M0,0l30,0l0,-103c0,-17,4,-30,13,-41c9,-10,23,-16,41,-16c12,0,21,3,27,10c7,6,10,15,10,27l0,123l30,0l0,-120c0,-20,-4,-36,-13,-48c-10,-12,-26,-18,-50,-18c-11,0,-22,2,-33,7c-11,5,-19,13,-24,24l-1,0l0,-97l-30,0l0,252z"/>
		<path id="sli" d="M0,0c-10,0,-20,0,-30,0c0,12,0,25,0,37c10,0,20,0,30,0c0,-12,0,-25,0,-37zM-30,252c10,0,20,0,30,0c0,-61,0,-121,0,-182c-10,0,-20,0,-30,0c0,61,0,121,0,182z"/>
		<path id="sll" d="M0,0c10,0,20,0,30,0c0,-84,0,-168,0,-252c-10,0,-20,0,-30,0c0,84,0,168,0,252z"/>
		<path id="slm" d="M0,0l30,0l0,-114c0,-7,3,-17,11,-28c7,-11,20,-17,38,-18c13,0,22,4,27,11c5,8,7,17,7,29l0,120l30,0l0,-114c0,-14,4,-25,13,-33c8,-9,20,-13,35,-13c14,0,24,4,28,12c5,7,7,17,7,28l0,120l30,0l0,-134c0,-18,-6,-32,-17,-40c-11,-8,-25,-12,-44,-12c-12,0,-22,3,-32,8c-10,5,-19,13,-25,23c-4,-11,-10,-19,-19,-24c-9,-5,-20,-7,-31,-7c-13,0,-24,3,-34,8c-10,5,-18,12,-25,23l-1,0l0,-27l-28,0l0,182z"/>
		<path id="sln" d="M0,0l30,0l0,-103c0,-17,4,-30,13,-41c9,-10,23,-16,41,-16c12,0,21,3,27,10c7,6,10,15,10,27l0,123l30,0l0,-120c0,-20,-4,-36,-13,-48c-10,-12,-26,-18,-50,-18c-13,0,-24,3,-34,8c-11,5,-19,14,-25,25l-1,0l0,-29l-28,0l0,182z"/>
		<path id="slo" d="M0,0c0,27,8,50,23,68c15,17,37,26,66,27c28,-1,50,-10,65,-27c15,-18,23,-41,23,-68c0,-27,-8,-50,-23,-68c-15,-17,-37,-26,-65,-27c-29,1,-51,10,-66,27c-15,18,-23,41,-23,68zM32,0c0,-22,6,-39,16,-51c11,-12,24,-18,41,-18c16,0,29,6,40,18c10,12,16,29,16,51c0,22,-6,39,-16,51c-11,12,-24,18,-40,18c-17,0,-30,-6,-41,-18c-10,-12,-16,-29,-16,-51z"/>
		<path id="slp" d="M0,0l30,0l0,-94l1,0c7,10,16,18,27,22c11,4,22,6,32,6c27,-1,48,-10,62,-28c14,-18,21,-40,21,-66c0,-27,-7,-49,-21,-68c-14,-18,-35,-27,-63,-28c-13,0,-24,2,-35,7c-10,4,-18,12,-23,21l-1,0l0,-24l-30,0l0,252zM141,-163c0,19,-4,35,-12,49c-8,14,-22,21,-43,22c-20,-1,-35,-8,-44,-21c-9,-13,-13,-30,-13,-48c0,-18,4,-34,13,-47c8,-14,23,-21,43,-22c19,1,33,8,42,21c10,13,14,29,14,46z"/>
		<path id="slq" d="M0,0l-30,0l0,24l-1,0c-7,-10,-16,-18,-27,-22c-11,-4,-22,-6,-32,-6c-27,1,-48,10,-62,28c-14,18,-21,40,-21,66c0,27,7,49,21,68c14,18,35,27,63,28c13,0,24,-2,35,-7c10,-4,18,-12,23,-21l1,0l0,94l30,0l0,-252zM-141,93c0,-19,4,-35,12,-49c8,-14,22,-21,43,-22c20,1,35,8,44,21c9,13,13,30,13,48c0,18,-4,34,-13,47c-8,14,-23,21,-43,22c-19,-1,-33,-8,-42,-21c-10,-13,-14,-29,-14,-46z"/>
		<path id="slr" d="M0,0l30,0l0,-81c0,-23,5,-41,15,-54c10,-12,27,-19,51,-19l0,-32c-16,0,-30,3,-40,10c-11,7,-20,18,-27,33l-1,0l0,-39l-28,0l0,182z"/>
		<path id="sls" d="M0,0c1,22,9,38,24,47c14,10,32,14,53,14c20,0,37,-4,53,-12c16,-9,24,-24,25,-45c-1,-17,-7,-29,-19,-37c-11,-7,-25,-12,-41,-15c-14,-3,-28,-6,-40,-10c-12,-4,-18,-11,-19,-22c0,-9,5,-15,13,-18c7,-4,16,-5,26,-5c10,0,19,2,28,7c8,4,13,12,14,24l30,0c-2,-22,-9,-37,-23,-45c-14,-8,-31,-12,-52,-12c-16,0,-32,4,-46,12c-14,8,-21,21,-22,39c1,17,7,29,19,37c12,7,25,12,41,15c15,3,29,6,41,11c11,4,18,12,18,23c-1,11,-6,18,-15,22c-9,4,-19,5,-29,5c-13,0,-24,-2,-33,-8c-10,-5,-15,-14,-16,-27l-30,0z"/>
		<path id="slt" d="M0,0l-30,0l0,55l-31,0l0,26l31,0l0,117c0,16,3,26,10,32c7,5,18,7,33,7l23,0l0,-26l-13,0c-10,0,-16,-1,-19,-3c-3,-2,-4,-7,-4,-13l0,-114l36,0l0,-26l-36,0l0,-55z"/>
		<path id="slu" d="M0,0l-30,0l0,103c0,17,-4,30,-13,41c-9,10,-23,16,-41,16c-12,0,-21,-3,-27,-10c-7,-6,-10,-15,-10,-27l0,-123l-30,0l0,120c0,20,4,36,13,48c10,12,26,18,50,18c13,0,24,-3,34,-8c11,-5,19,-14,25,-25l1,0l0,29l28,0l0,-182z"/>
		<path id="slv" d="M0,0c-11,0,-21,0,-32,0c-16,51,-33,101,-49,152c-1,0,-1,0,-1,0c-17,-51,-34,-101,-51,-152c-11,0,-23,0,-34,0c23,61,45,121,68,182c11,0,21,0,32,0c22,-61,45,-121,67,-182z"/>
		<path id="slw" d="M0,0c-11,0,-21,0,-31,0c-14,50,-28,99,-41,149c0,0,-1,0,-1,0c-13,-50,-25,-99,-38,-149c-11,0,-22,0,-33,0c-12,50,-25,99,-37,149c0,0,0,0,-1,0c-13,-50,-27,-99,-41,-149c-11,0,-22,0,-33,0c20,61,39,121,59,182c10,0,21,0,32,0c12,-48,25,-97,37,-145c0,0,0,0,0,0c13,48,25,97,38,145c10,0,21,0,31,0c20,-61,39,-121,59,-182z"/>
		<path id="slx" d="M0,0c12,0,24,0,36,0c17,-25,34,-51,51,-76c17,25,34,51,51,76c12,0,25,0,38,0c-24,-33,-47,-66,-70,-99c21,-28,42,-55,63,-83c-12,0,-24,0,-36,0c-15,21,-30,43,-46,64c-14,-21,-29,-43,-43,-64c-13,0,-26,0,-39,0c21,29,42,58,64,87c-23,31,-46,63,-69,95z"/>
		<path id="sly" d="M0,0l-32,0l-51,149l-1,0l-53,-149l-34,0l72,181l-12,31c-3,6,-6,10,-10,13c-4,3,-9,4,-15,4c-3,0,-6,0,-9,-1c-3,-1,-5,-2,-8,-3l0,27c3,1,7,2,10,2c4,1,7,1,11,1c13,0,23,-3,31,-11c8,-7,15,-20,22,-37l79,-207z"/>
		<path id="sn0" d="M0,0c0,-13,0,-27,2,-43c2,-15,6,-29,13,-40c8,-12,20,-18,37,-18c16,0,28,6,36,18c7,11,11,25,13,40c2,16,2,30,2,43c0,13,0,27,-2,43c-2,15,-6,29,-13,40c-8,12,-20,18,-36,18c-17,0,-29,-6,-37,-18c-7,-11,-11,-25,-13,-40c-2,-16,-2,-30,-2,-43zM-32,0c0,19,1,38,4,58c4,19,11,35,23,48c12,14,31,20,57,21c25,-1,44,-7,56,-21c12,-13,19,-29,23,-48c3,-20,4,-39,4,-58c0,-19,-1,-38,-4,-57c-4,-20,-11,-36,-23,-49c-12,-14,-31,-20,-56,-21c-26,1,-45,7,-57,21c-12,13,-19,29,-23,49c-3,19,-4,38,-4,57z"/>
		<path id="sn1" d="M0,0l-23,0c-4,19,-12,31,-26,38c-13,6,-28,9,-46,9l0,24l65,0l0,179l30,0l0,-250z"/>
		<path id="sn2" d="M0,0c-1,-15,3,-30,11,-42c7,-13,20,-19,37,-20c14,0,25,4,34,12c9,9,14,19,14,33c0,17,-5,31,-16,42c-10,11,-26,22,-47,35c-18,10,-33,22,-46,37c-13,15,-21,36,-24,65l162,0l0,-26l-127,0c3,-15,12,-28,25,-38c14,-9,28,-19,44,-28c16,-10,30,-21,42,-34c12,-13,18,-31,19,-52c-1,-24,-8,-42,-23,-54c-14,-12,-33,-18,-55,-18c-26,1,-47,9,-61,25c-14,16,-20,37,-19,63l30,0z"/>
		<path id="sn3" d="M0,0c3,0,6,-1,9,-1c3,0,6,0,9,0c15,0,28,4,38,12c10,8,15,20,15,36c0,16,-6,28,-16,36c-10,9,-23,13,-38,13c-17,0,-30,-5,-39,-15c-9,-10,-14,-24,-14,-40l-30,0c0,26,7,46,22,60c15,14,35,21,61,21c24,0,44,-6,60,-19c17,-13,25,-32,26,-57c0,-15,-4,-29,-11,-39c-8,-11,-19,-19,-34,-22l0,-1c10,-4,18,-11,25,-20c6,-8,10,-18,10,-29c-1,-23,-8,-40,-22,-51c-14,-11,-32,-16,-55,-16c-25,0,-44,8,-56,22c-13,15,-20,34,-21,58l30,0c0,-15,4,-28,11,-38c8,-10,20,-16,36,-16c13,0,24,3,32,10c9,7,13,17,13,30c0,14,-5,24,-14,31c-9,7,-21,10,-34,10c-4,0,-8,0,-13,0l0,25z"/>
		<path id="sn4" d="M0,0c-8,0,-16,0,-24,0c-38,54,-76,108,-114,163c0,9,0,18,0,28c37,0,73,0,110,0c0,20,0,39,0,59c9,0,19,0,28,0c0,-20,0,-39,0,-59c11,0,23,0,34,0c0,-9,0,-17,0,-26c-11,0,-23,0,-34,0c0,-55,0,-110,0,-165zM-112,165c28,-41,56,-82,83,-122c1,0,1,0,1,0c0,40,0,81,0,122c-28,0,-56,0,-84,0z"/>
		<path id="sn5" d="M0,0l-124,0l-23,129l25,2c6,-7,13,-13,21,-17c8,-5,17,-7,26,-7c17,0,31,6,41,16c11,10,16,24,16,41c0,20,-6,35,-16,45c-10,10,-22,15,-37,15c-15,0,-28,-5,-37,-13c-10,-8,-15,-19,-16,-33l-30,0c1,23,9,41,24,53c15,13,34,19,56,19c29,-1,51,-9,66,-26c15,-16,22,-35,22,-57c-1,-29,-9,-51,-24,-65c-15,-14,-34,-21,-57,-21c-9,0,-18,1,-26,4c-8,3,-15,8,-21,14l-1,-1l14,-72l101,0l0,-26z"/>
		<path id="sn6" d="M0,0c-2,-20,-9,-36,-21,-46c-12,-11,-29,-17,-50,-17c-35,1,-59,15,-72,41c-14,26,-20,57,-20,93c0,18,2,36,6,54c4,19,13,34,25,47c13,12,31,18,55,19c31,-1,53,-11,66,-28c12,-18,18,-36,18,-56c0,-24,-7,-43,-20,-58c-14,-15,-32,-22,-57,-23c-13,0,-25,3,-36,8c-10,5,-19,13,-26,24l-1,0c0,-21,4,-41,12,-62c8,-20,24,-31,49,-33c12,0,22,3,29,10c7,7,12,16,13,27l30,0zM-75,52c17,0,29,6,38,17c8,11,12,24,12,40c0,16,-4,29,-13,39c-9,11,-21,17,-37,17c-17,0,-30,-6,-39,-16c-9,-11,-13,-24,-13,-40c0,-16,4,-30,13,-40c9,-11,22,-17,39,-17z"/>
		<path id="sph" d="M0,0c34,0,68,0,102,0c0,-9,0,-19,0,-28c-34,0,-68,0,-102,0c0,9,0,19,0,28z"/>
		<path id="spp" d="M0,0c13,0,26,0,39,0c0,-13,0,-26,0,-39c-13,0,-26,0,-39,0c0,13,0,26,0,39z"/>
		<path id="sud" d="M0,0l56,0c31,0,52,9,65,26c13,17,20,40,19,71c0,30,-6,53,-17,67c-10,14,-22,23,-35,27c-13,4,-24,6,-32,5l-56,0l0,-196zM-34,224l87,0c41,0,72,-12,92,-34c19,-23,29,-56,29,-98c0,-41,-11,-71,-32,-91c-20,-19,-50,-29,-89,-29l-87,0l0,252z"/>
		<path id="suf" d="M0,0c11,0,23,0,34,0c0,-39,0,-77,0,-116c38,0,77,0,116,0c0,-9,0,-19,0,-28c-39,0,-78,0,-116,0c0,-27,0,-53,0,-80c44,0,88,0,132,0c0,-9,0,-19,0,-28c-55,0,-111,0,-166,0c0,84,0,168,0,252z"/>
		<path id="sui" d="M0,0c11,0,23,0,34,0c0,-84,0,-168,0,-252c-11,0,-23,0,-34,0c0,84,0,168,0,252z"/>
		<path id="sur" d="M0,0l34,0l0,-108l82,0c16,0,26,5,32,13c5,9,9,20,10,33c2,12,3,25,3,36c0,12,2,20,6,26l38,0c-7,-9,-11,-20,-12,-32c-1,-13,-2,-25,-3,-38c-1,-12,-4,-24,-9,-33c-5,-9,-15,-16,-29,-19l0,0c15,-5,26,-13,33,-24c7,-11,11,-25,11,-40c0,-21,-7,-37,-21,-48c-13,-12,-32,-18,-56,-18l-119,0l0,252zM34,-136l0,-88l83,0c16,0,27,4,35,12c7,8,10,18,10,31c0,18,-6,30,-17,36c-11,7,-25,9,-41,9l-70,0z"/>
		<path id="sus" d="M0,0c-2,-27,-11,-47,-28,-60c-17,-13,-38,-19,-65,-19c-23,0,-44,6,-62,18c-18,11,-28,30,-29,55c1,23,9,39,26,48c16,9,34,15,55,19c21,4,39,9,55,16c16,6,24,18,25,34c-1,18,-7,30,-20,37c-13,6,-28,9,-44,9c-19,0,-36,-5,-51,-14c-14,-10,-21,-26,-22,-47l-32,0c1,31,11,53,31,68c20,14,44,21,73,21c24,0,47,-6,67,-17c20,-12,31,-31,32,-58c-1,-24,-9,-41,-25,-51c-16,-11,-35,-18,-56,-22c-21,-4,-39,-9,-55,-14c-16,-6,-24,-16,-25,-31c0,-16,6,-27,17,-34c12,-6,24,-9,39,-9c17,0,32,4,43,12c10,8,17,22,19,39l32,0z"/>
	</defs>
	
	<g transform="translate(0 0)">
		<use href="#sqr" x="0" fill="#FFFFFF"/>
		<use href="#sqr" x="1000" fill="#FFFFFF"/>
		<use href="#sqr" x="2000" fill="#FFFFFF"/>
		<use href="#sqr" x="3000" fill="#FFFFFF"/>
		<use href="#sqr" x="4000" fill="#FFFFFF"/>
		<use href="#sqr" x="5000" fill="#FFFFFF"/>
		<use href="#sqr" x="6000" fill="#FFFFFF"/>
		<use href="#init-seq"/>
	</g>
	<g transform="translate(0 2000)">
		<use href="#sqr" x="0" fill="#FFFFFF"/>
		<use href="#sqr" x="1000" fill="#FFFFFF"/>
		<use href="#sqr" x="2000" fill="#FFFFFF"/>
		<use href="#sqr" x="3000" fill="#CFE7F5"/>
		<use href="#sqr" x="4000" fill="#CFE7F5"/>
		<use href="#sqr" x="5000" fill="#CFE7F5"/>
		<use href="#sqr" x="6000" fill="#CFE7F5"/>
		<use href="#init-seq"/>
	</g>
	<g transform="translate(0 4000)">
		<use href="#sqr" x="0" fill="#FFFFFF"/>
		<use href="#sqr" x="1000" fill="#FFFFFF"/>
		<use href="#sqr" x="2000" fill="#FFCC99"/>
		<use href="#sqr" x="3000" fill="#CFE7F5"/>
		<use href="#sqr" x="4000" fill="#CFE7F5"/>
		<use href="#sqr" x="5000" fill="#CFE7F5"/>
		<use href="#sqr" x="6000" fill="#CFE7F5"/>
		<use href="#init-seq"/>
	</g>
	<g transform="translate(0 6000)">
		<use href="#sqr" x="0" fill="#FFFFFF"/>
		<use href="#sqr" x="1000" fill="#FFFFFF"/>
		<use href="#sqr" x="2000" fill="#FFCC99"/>
		<use href="#sqr" x="3000" fill="#CFE7F5"/>
		<use href="#sqr" x="4000" fill="#CFE7F5"/>
		<use href="#sqr" x="5000" fill="#99CCFF"/>
		<use href="#sqr" x="6000" fill="#CFE7F5"/>
		<use href="#init-seq"/>
	</g>
	<g transform="translate(0 8000)">
		<use href="#sqr" x="0" fill="#FFFFFF"/>
		<use href="#sqr" x="1000" fill="#FFFFFF"/>
		<use href="#sqr" x="2000" fill="#99CCFF"/>
		<use href="#sqr" x="3000" fill="#CFE7F5"/>
		<use href="#sqr" x="4000" fill="#CFE7F5"/>
		<use href="#sqr" x="5000" fill="#FFCC99"/>
		<use href="#sqr" x="6000" fill="#CFE7F5"/>
		<use href="#0" x="0"/>
		<use href="#1" x="1000"/>
		<use href="#3" x="2000"/>
		<use href="#5" x="3000"/>
		<use href="#3" x="4000"/>
		<use href="#2" x="5000"/>
		<use href="#0" x="6000"/>
	</g>
	<g transform="translate(0 10000)">
		<use href="#sqr" x="0" fill="#FFFFFF"/>
		<use href="#sqr" x="1000" fill="#FFFFFF"/>
		<use href="#sqr" x="2000" fill="#FFFFFF"/>
		<use href="#sqr" x="3000" fill="#CFE7F5"/>
		<use href="#sqr" x="4000" fill="#CFE7F5"/>
		<use href="#sqr" x="5000" fill="#CFE7F5"/>
		<use href="#sqr" x="6000" fill="#CFE7F5"/>
		<use href="#0" x="0"/>
		<use href="#1" x="1000"/>
		<use href="#3" x="2000"/>
		<use href="#0" x="3000"/>
		<use href="#2" x="4000"/>
		<use href="#3" x="5000"/>
		<use href="#5" x="6000"/>
	</g>
	<g transform="translate(0 12000)">
		<use href="#sqr" x="0" fill="#FFFFFF"/>
		<use href="#sqr" x="1000" fill="#FFFFFF"/>
		<use href="#sqr" x="2000" fill="#FFFFFF"/>
		<use href="#sqr" x="3000" fill="#FFFFFF"/>
		<use href="#sqr" x="4000" fill="#FFFFFF"/>
		<use href="#sqr" x="5000" fill="#FFFFFF"/>
		<use href="#sqr" x="6000" fill="#FFFFFF"/>
		<use href="#0" x="0"/>
		<use href="#1" x="1000"/>
		<use href="#3" x="2000"/>
		<use href="#0" x="3000"/>
		<use href="#2" x="4000"/>
		<use href="#3" x="5000"/>
		<use href="#5" x="6000"/>
	</g>
	
	<g fill="#000000">
		<use href="#sla" x="1680" y="8810"/>
		<use href="#sla" x="1731" y="810"/>
		<use href="#sla" x="1951" y="3221"/>
		<use href="#slc" x="1449" y="3121"/>
		<use href="#slc" x="1551" y="7121"/>
		<use href="#slc" x="1741" y="7121"/>
		<use href="#slc" x="3244" y="710"/>
		<use href="#sld" x="1275" y="4582"/>
		<use href="#sld" x="1660" y="2582"/>
		<use href="#sld" x="1660" y="6582"/>
		<use href="#sle" x="1389" y="10776"/>
		<use href="#sle" x="1444" y="4776"/>
		<use href="#sle" x="1724" y="3187"/>
		<use href="#sle" x="1758" y="10776"/>
		<use href="#sle" x="1791" y="12776"/>
		<use href="#sle" x="1821" y="7598"/>
		<use href="#sle" x="1902" y="7187"/>
		<use href="#sle" x="2236" y="776"/>
		<use href="#sle" x="2244" y="10776"/>
		<use href="#sle" x="2604" y="2776"/>
		<use href="#sle" x="2829" y="776"/>
		<use href="#sle" x="2837" y="10776"/>
		<use href="#sle" x="3404" y="776"/>
		<use href="#slf" x="1903" y="4834"/>
		<use href="#slf" x="2369" y="7656"/>
		<use href="#slf" x="2470" y="7656"/>
		<use href="#slf" x="3114" y="3245"/>
		<use href="#slf" x="3215" y="3245"/>
		<use href="#slf" x="3385" y="10834"/>
		<use href="#slf" x="3486" y="10834"/>
		<use href="#slg" x="2154" y="6652"/>
		<use href="#slg" x="2433" y="2652"/>
		<use href="#slg" x="2585" y="3063"/>
		<use href="#slh" x="1501" y="7656"/>
		<use href="#slh" x="2200" y="6834"/>
		<use href="#slh" x="2467" y="8834"/>
		<use href="#slh" x="2517" y="10834"/>
		<use href="#sli" x="1054" y="2993"/>
		<use href="#sli" x="1054" y="7404"/>
		<use href="#sli" x="1257" y="2582"/>
		<use href="#sli" x="1257" y="6582"/>
		<use href="#sli" x="1338" y="582"/>
		<use href="#sli" x="1524" y="582"/>
		<use href="#sli" x="1846" y="4582"/>
		<use href="#sli" x="1951" y="6582"/>
		<use href="#sli" x="2189" y="2993"/>
		<use href="#sli" x="2311" y="8582"/>
		<use href="#sli" x="2510" y="4582"/>
		<use href="#sli" x="2595" y="7404"/>
		<use href="#sli" x="2997" y="8582"/>
		<use href="#sli" x="3340" y="2993"/>
		<use href="#sli" x="3391" y="6993"/>
		<use href="#sli" x="3611" y="10582"/>
		<use href="#sll" x="1761" y="834"/>
		<use href="#sll" x="1803" y="2834"/>
		<use href="#slm" x="2505" y="6834"/>
		<use href="#sln" x="1099" y="3245"/>
		<use href="#sln" x="1099" y="7656"/>
		<use href="#sln" x="1112" y="834"/>
		<use href="#sln" x="1302" y="2834"/>
		<use href="#sln" x="1302" y="6834"/>
		<use href="#sln" x="1472" y="12834"/>
		<use href="#sln" x="1510" y="4834"/>
		<use href="#sln" x="2081" y="2834"/>
		<use href="#sln" x="2234" y="3245"/>
		<use href="#sln" x="2894" y="834"/>
		<use href="#sln" x="3055" y="2834"/>
		<use href="#sln" x="3453" y="2834"/>
		<use href="#slo" x="1259" y="12743"/>
		<use href="#slo" x="1868" y="2743"/>
		<use href="#slo" x="2313" y="7154"/>
		<use href="#slo" x="2723" y="4743"/>
		<use href="#slo" x="2795" y="6743"/>
		<use href="#slo" x="2842" y="7154"/>
		<use href="#slo" x="3210" y="8743"/>
		<use href="#slo" x="3240" y="2743"/>
		<use href="#slo" x="3604" y="7154"/>
		<use href="#slp" x="1710" y="8904"/>
		<use href="#slp" x="2273" y="4904"/>
		<use href="#slp" x="2760" y="8904"/>
		<use href="#slp" x="3153" y="7315"/>
		<use href="#slq" x="2464" y="652"/>
		<use href="#slr" x="1483" y="3245"/>
		<use href="#slr" x="1801" y="6834"/>
		<use href="#slr" x="1822" y="10834"/>
		<use href="#slr" x="2525" y="7245"/>
		<use href="#sls" x="1011" y="7188"/>
		<use href="#sls" x="1921" y="777"/>
		<use href="#sls" x="1930" y="10777"/>
		<use href="#sls" x="1955" y="7188"/>
		<use href="#sls" x="1968" y="3188"/>
		<use href="#sls" x="1972" y="7599"/>
		<use href="#sls" x="2133" y="7188"/>
		<use href="#sls" x="2658" y="2777"/>
		<use href="#sls" x="2717" y="3188"/>
		<use href="#sls" x="2988" y="10777"/>
		<use href="#sls" x="2996" y="6777"/>
		<use href="#slt" x="1424" y="597"/>
		<use href="#slt" x="1432" y="7419"/>
		<use href="#slt" x="1746" y="4597"/>
		<use href="#slt" x="2398" y="8597"/>
		<use href="#slt" x="2436" y="6597"/>
		<use href="#slt" x="2448" y="10597"/>
		<use href="#slt" x="2783" y="7008"/>
		<use href="#slt" x="2889" y="2597"/>
		<use href="#slt" x="2977" y="4597"/>
		<use href="#slt" x="3227" y="6597"/>
		<use href="#slt" x="3464" y="8597"/>
		<use href="#slt" x="3858" y="7008"/>
		<use href="#slu" x="1352" y="7063"/>
		<use href="#slu" x="2313" y="7474"/>
		<use href="#slu" x="2660" y="652"/>
		<use href="#slu" x="3058" y="3063"/>
		<use href="#slu" x="3329" y="10652"/>
		<use href="#slv" x="1604" y="10652"/>
		<use href="#slv" x="2704" y="4652"/>
		<use href="#slv" x="3191" y="8652"/>
		<use href="#slv" x="3585" y="7063"/>
		<use href="#slw" x="1491" y="8652"/>
		<use href="#slw" x="2253" y="8652"/>
		<use href="#slx" x="2620" y="7656"/>
		<use href="#slx" x="3365" y="3245"/>
		<use href="#slx" x="3636" y="10834"/>
		<use href="#sly" x="2148" y="4652"/>
		<use href="#sn0" x="547" y="711"/>
		<use href="#sn1" x="626" y="2584"/>
		<use href="#sn2" x="546" y="4672"/>
		<use href="#sn3" x="577" y="6716"/>
		<use href="#sn4" x="648" y="8584"/>
		<use href="#sn5" x="666" y="10588"/>
		<use href="#sn6" x="676" y="12647"/>
		<use href="#sph" x="3643" y="2750"/>
		<use href="#spp" x="724" y="834"/>
		<use href="#spp" x="724" y="2834"/>
		<use href="#spp" x="724" y="4834"/>
		<use href="#spp" x="724" y="6834"/>
		<use href="#spp" x="724" y="8834"/>
		<use href="#spp" x="724" y="10834"/>
		<use href="#spp" x="724" y="12834"/>
		<use href="#sud" x="1061" y="12610"/>
		<use href="#suf" x="1027" y="2834"/>
		<use href="#suf" x="1027" y="6834"/>
		<use href="#sui" x="1029" y="834"/>
		<use href="#sui" x="1029" y="4834"/>
		<use href="#sur" x="1027" y="10834"/>
		<use href="#sus" x="1205" y="8655"/>
	</g>
</svg>
